<?xml version="1.0" standalone="no"?>
<!DOCTYPE svg PUBLIC "-//W3C//DTD SVG 1.1//EN" "http://www.w3.org/Graphics/SVG/1.1/DTD/svg11.dtd">
<svg style="width: 100%; height: 100%;"
xmlns="http://www.w3.org/2000/svg" xmlns:xlink= "http://www.w3.org/1999/xlink"
     viewBox="0 0 200 200">
<line x1="21" y1="15" x2="69" y2="35" stroke="#333" stroke-width="6" stroke-linecap="round"></line><line x1="178" y1="15" x2="130" y2="35" stroke="#333" stroke-width="6" stroke-linecap="round"></line><line x1="21" y1="58" x2="69" y2="35" stroke="#333" stroke-width="6" stroke-linecap="round"></line><line x1="178" y1="58" x2="130" y2="35" stroke="#333" stroke-width="6" stroke-linecap="round"></line><polygon points="40,188 160,188 130,50 70,50" stroke="#333" stroke-width="2" fill="white"></polygon><polygon points="46,165 154,165 150,145 50,145" fill="lightskyblue"></polygon><polygon points="54,125 146,125 142,105 58,105" fill="lightskyblue"></polygon><polygon points="67,65 133,65 138,85 62,85" fill="lightskyblue"></polygon><polygon points="40,188 160,188 130,50 70,50" stroke="#333" stroke-width="2" fill-opacity="0" fill="transparent"></polygon><rect x="70" y="22" width="60" height="26" stroke="#333" stroke-width="2" fill="yellow"></rect><rect x="65" y="47" rx="4" ry="4" width="70" height="5" stroke="#333" stroke-width="1" fill="white"></rect><polygon points="70,15 70,22 130,22 130,15 100,10" stroke="#333" stroke-width="2" fill="white"></polygon><rect x="62" y="20" rx="4" ry="4" width="74" height="5" stroke="#333" stroke-width="1" fill="white"></rect></svg>
